<?xml version="1.0" encoding="utf-8"?>
<!-- Uploaded to: SVG Repo, www.svgrepo.com, Generator: SVG Repo Mixer Tools -->
<svg fill="#000000" version="1.1" id="Layer_1" xmlns="http://www.w3.org/2000/svg" xmlns:xlink="http://www.w3.org/1999/xlink" 
	 width="800px" height="800px" viewBox="0 0 256 141" enable-background="new 0 0 256 141" xml:space="preserve">
<path d="M64.538,91.602c-12.775,0-23.113,10.338-23.113,23.113s10.338,23.113,23.113,23.113c12.775,0,23.113-10.338,23.113-23.113
	S77.314,91.602,64.538,91.602z M64.538,123.568c-4.853,0-8.853-4-8.853-8.853c0-4.853,4-8.853,8.853-8.853
	c4.853,0,8.853,4,8.853,8.853C73.391,119.568,69.391,123.568,64.538,123.568z M210.043,91.618
	c-12.775,0-23.113,10.338-23.113,23.113s10.338,23.113,23.113,23.113c12.775,0,23.113-10.338,23.113-23.113
	S222.818,91.618,210.043,91.618z M210.043,123.584c-4.853,0-8.853-4-8.853-8.853c0-4.853,4-8.853,8.853-8.853
	c4.853,0,8.853,4,8.853,8.853C218.896,119.583,214.896,123.584,210.043,123.584z M2,101.583c0,4.481,3.519,8.114,8,8.356h22.349
	c0.924-0.242,1.68-0.914,1.848-1.755c2.521-14.456,15.129-24.482,30.341-24.482s27.82,10.026,30.341,24.482
	c0.168,0.924,0.924,1.513,1.849,1.755h3.195H131v-52H2V101.583z M252,92.938h-5v-21c0-7.396-5.52-14-13-14h-24
	c-0.504,0-1.099-0.064-1.435-0.4l-37.401-36.405c-1.681-1.681-3.726-3.111-6.163-3.195h-27v92h40c0.925,0,1.534-0.914,1.702-1.755
	c2.521-14.456,15.129-25.466,30.341-25.466s27.82,11.01,30.341,25.466c0.168,0.925,0.691,1.755,1.616,1.755h3
	c4.791,0,9-4.108,9-8.815v-6.219C254,93.98,253.009,92.938,252,92.938z M191,57.938h-41c-1.009,0-2-0.991-2-2v-26
	c0-1.009,0.991-2,2-2h13c0.504,0,1.523,0.759,1.944,1.095l27.063,25.9C193.016,56.194,192.597,57.938,191,57.938z M2,49.938
	l37.062-37.062c14.878-14.878,38.999-14.878,53.877,0L130,49.938H2z"/>
</svg>